<svg xmlns="http://www.w3.org/2000/svg" viewBox="0 0 32 32">
    <rect width="32" height="32" fill="#303034" rx="16"></rect>
    <circle cx="28" cy="28" r="5" stroke-width="2" fill="#a9d34f"></circle>
    <path fill-rule="evenodd" fill="#8b8b8f" d="M16 9.75a2.25 2.25 0 1 0 0 4.5 2.25 2.25 0 0 0 0-4.5ZM12.25 12a3.75 3.75 0 1 1 7.5 0 3.75 3.75 0 0 1-7.5 0Zm.39 6.75a1.25 1.25 0 0 0-1.226 1.005l-.678 3.392a.75.75 0 1 1-1.471-.294l.678-3.392a2.75 2.75 0 0 1 2.697-2.211h6.72a2.75 2.75 0 0 1 2.697 2.21l.679 3.393a.75.75 0 0 1-1.471.294l-.679-3.392a1.25 1.25 0 0 0-1.226-1.005h-6.72Z" clip-rule="evenodd"></path>
</svg>